<?xml version="1.0" encoding="utf-8"?>
<!DOCTYPE svg PUBLIC "-//W3C//DTD SVG 1.0//EN" "http://www.w3.org/TR/2001/REC-SVG-20010904/DTD/svg10.dtd">
<svg version="1.0" xmlns="http://www.w3.org/2000/svg" width="2000px" height="2000px" viewBox="0 0 2000 2000" preserveAspectRatio="xMidYMid meet">
 <g fill="#010101">
  <path d="M0 1000 l0 -1000 1000 0 1000 0 0 1000 0 1000 -1000 0 -1000 0 0 -1000z m794.5 284.9 c24 -0.9 28.2 -1.3 29.6 -2.7 1.7 -1.7 8.9 -21.4 11.5 -31.1 0.8 -3 2.1 -6.8 2.8 -8.5 2.4 -5.7 19.8 -55 20.8 -59.1 0.5 -2.1 1.5 -5.3 2.2 -7 0.7 -1.6 6.5 -17.8 12.9 -36 6.3 -18.1 15.2 -43.6 19.7 -56.5 4.5 -12.9 11.4 -32.7 15.2 -44 3.8 -11.3 11.8 -34.2 17.7 -51 5.9 -16.8 11.4 -32.5 12.2 -35 1.3 -4.1 1.7 -4.5 5 -4.8 l3.6 -0.3 6.3 17.8 c3.4 9.8 6.8 19.2 7.5 20.8 0.7 1.7 2 5.5 2.9 8.5 1.8 6.1 21.1 60.7 23.2 65.7 0.8 1.7 1.4 3.7 1.4 4.5 0 0.8 4.5 13.7 10 28.8 5.6 15.1 11.3 31.6 12.9 36.5 1.6 5 7.8 22.8 14 39.7 6.1 16.9 11.1 31.4 11.1 32.2 0 0.8 0.4 1.7 0.9 2.1 0.5 0.3 1.2 2 1.6 3.8 0.4 1.7 5.3 16.3 11 32.2 5.7 16 10.8 30.8 11.4 33 0.6 2.2 2.3 5.5 3.9 7.4 l2.9 3.5 57 0.4 c31.3 0.3 71.2 0.1 88.6 -0.3 27.7 -0.6 32 -0.9 33.9 -2.4 1.9 -1.6 2 -2.1 0.8 -5.7 -2.7 -8.4 -12.8 -35.2 -24.1 -64.1 -6.6 -16.6 -11.9 -30.7 -11.9 -31.3 0 -0.5 -0.4 -1.8 -0.9 -2.8 -2 -3.9 -23.1 -58.1 -23.1 -59.4 0 -0.8 -0.4 -1.8 -0.9 -2.4 -0.5 -0.5 -1.4 -2.5 -1.9 -4.4 -0.5 -1.9 -5.5 -14.8 -11 -28.6 -5.6 -13.9 -11 -27.8 -12.1 -31 -1.1 -3.3 -6.9 -18.5 -13 -33.9 -6.1 -15.4 -11.1 -28.6 -11.1 -29.3 0 -0.7 -0.4 -2 -0.9 -3 -0.8 -1.4 -6.9 -16.6 -26.6 -66.6 -2.5 -6.4 -2.8 -8 -2.9 -22.5 l-0.1 -15.6 41.9 -0.3 c31.3 -0.2 42.3 -0.5 43.4 -1.4 1.3 -1.1 1.4 -4.2 0.8 -21.3 -0.4 -11 -1 -20.3 -1.2 -20.7 -0.3 -0.5 -19.1 -0.8 -41.9 -0.8 -24 0 -41.6 -0.4 -41.9 -0.9 -0.4 -0.5 -0.9 -12.7 -1.3 -27 l-0.6 -26.1 49.9 -0.2 49.9 -0.3 0.3 -22.4 c0.2 -15.6 -0.1 -22.8 -0.9 -23.7 -1.6 -1.9 -148.8 -2.1 -150.7 -0.2 -0.8 0.8 -1.2 4.6 -1.2 10.5 l0 9.3 -3.3 0 c-3.2 0 -3.2 0 -8 -12.7 -2.6 -7.1 -5.2 -13.6 -5.8 -14.5 -0.5 -1 -0.9 -2.5 -0.9 -3.4 0 -0.9 -0.6 -2.8 -1.4 -4.2 -0.7 -1.5 -6 -14.6 -11.6 -29.2 -5.6 -14.6 -10.6 -27.3 -11.1 -28.2 -0.5 -1 -0.9 -2.7 -0.9 -3.8 0 -1.1 -0.4 -2 -0.9 -2 -0.5 0 -1.2 -1.2 -1.5 -2.7 -0.7 -3 -16.5 -44 -19.6 -50.9 -1.1 -2.3 -2.2 -5.5 -2.6 -7 -0.4 -1.6 -1 -3.3 -1.4 -3.9 -0.4 -0.5 -1.1 -2.1 -1.5 -3.5 -2.1 -7.6 -8.2 -21.4 -10.4 -23.6 -4.4 -4.4 -5.7 -4.7 -8 -1.8 -1.2 1.5 -2.1 3.5 -2.1 4.5 0 1.1 -0.4 1.9 -0.8 1.9 -0.5 0 -1.3 1.5 -1.9 3.4 -0.6 1.9 -3.9 10.2 -7.4 18.5 l-6.4 15.1 -3.8 0 c-2.7 0 -3.9 -0.5 -4.3 -1.7 -0.3 -1 -1.2 -3.1 -1.9 -4.8 -0.7 -1.6 -1.7 -4.1 -2.3 -5.5 -7.9 -20.3 -14.8 -35 -16.5 -35 -1.5 0 -6.3 6.5 -8.8 12 -3 6.4 -19.2 48.3 -20.2 52.2 -0.5 2.1 -1.3 3.8 -1.8 3.8 -0.5 0 -0.9 0.9 -0.9 2 0 1.1 -0.4 2.8 -0.9 3.8 -2 3.7 -20.1 51.3 -20.1 52.6 0 0.8 -0.4 1.7 -0.9 2 -0.5 0.3 -1.2 2.2 -1.5 4.1 -0.4 1.9 -1.1 3.5 -1.6 3.5 -0.6 0 -1 0.8 -1 1.7 0 1.8 -20.1 54.8 -22.6 59.5 -0.8 1.4 -1.4 3.2 -1.4 4 0 1.2 -22.3 59.1 -25.6 66.5 -0.8 1.7 -1.4 3.6 -1.4 4.2 0 0.7 -5.1 14.3 -11.4 30.4 -6.2 16.1 -13.3 34.6 -15.7 41.2 l-4.5 12 -17.2 0.3 c-9.5 0.1 -17.3 0.1 -17.4 0 -0.2 -0.2 -0.5 -40.8 -0.8 -90.3 l-0.5 -90 -25.5 0 -25.5 0 -0.3 114.8 -0.2 114.7 33 0 33 0 0 3.7 c0 2.2 -3.1 11.6 -8.1 24.2 -4.5 11.3 -9.9 25.3 -11.9 31.1 -3.1 8.7 -20.1 52.7 -23 59.5 -0.5 1.1 -1.2 3.1 -1.6 4.5 -0.3 1.4 -5.5 14.9 -11.5 30 -5.9 15.1 -11.1 28.7 -11.5 30.3 -0.3 1.5 -1 3 -1.5 3.3 -0.5 0.3 -0.9 1.2 -0.9 2 0 0.8 -5.2 14.6 -11.5 30.5 -6.3 16 -11.5 29.5 -11.5 30 0 0.5 -5.6 15.1 -12.5 32.5 -6.9 17.4 -12.5 32.2 -12.5 32.9 0 2.1 1.9 2.4 22.7 3.5 36.9 2 77.5 1.9 132.8 -0.1z m790 -319 c33.8 -1.7 47 -5 65.7 -16.2 8.5 -5.1 20.7 -18.7 27.4 -30.4 5.8 -10.3 8.1 -16.3 11.2 -30.8 2.3 -11 2.6 -14 2.6 -36 0 -13.5 -0.6 -28.2 -1.3 -33.6 -3.3 -26.1 -11.7 -45.4 -25.5 -59.1 -7 -7 -14.6 -11.4 -26.4 -15.4 -13.3 -4.5 -23.3 -6.4 -39.7 -7.4 -17.2 -1.2 -94.5 -1.3 -96.3 -0.2 -1 0.7 -1.2 24.4 -1 115.3 l0.3 114.4 12 0.5 c16.1 0.7 45.4 0.2 71 -1.1z m-1249 -22.9 l0 -23.5 -46.5 -0.6 c-25.6 -0.3 -49.5 -0.7 -53.2 -0.8 l-6.8 -0.1 0 -3.6 c0 -2.3 1 -4.8 2.8 -7.2 1.5 -2 3 -4.1 3.4 -4.7 0.5 -0.5 5.9 -7.4 12 -15.2 6.2 -7.8 12 -15.1 12.8 -16.3 0.8 -1.3 6.5 -8.5 12.5 -16.1 6.1 -7.5 11.9 -15 13 -16.5 2 -2.8 8.7 -11.4 11.1 -14.4 4.5 -5.4 16.1 -20.1 17.4 -21.9 1.8 -2.7 4 -5.6 10 -13 l4.5 -5.6 0.3 -20.9 c0.2 -11.6 0.1 -22 -0.3 -23.3 l-0.5 -2.3 -75.1 0 c-60.5 0 -75.1 0.2 -75.5 1.3 -0.2 0.7 -0.1 11.2 0.3 23.2 l0.8 22 44.3 0.3 44.2 0.2 0 3.6 c0 3.8 0.1 3.6 -32.9 45.4 -25 31.6 -33.2 42 -49.9 63.3 l-17.2 21.9 0 23.8 c0 18.1 0.3 24 1.3 24.3 0.6 0.3 38.6 0.5 84.2 0.4 l83 -0.2 0 -23.5z m102.5 -66.7 c0 -50 -0.3 -101.9 -0.7 -115.6 l-0.6 -24.7 -25.1 0.2 -25.1 0.3 -0.3 115.3 -0.2 115.2 26 0 26 0 0 -90.7z m205 88.8 c1.1 -2.1 1.4 -39.9 0.4 -43.8 l-0.6 -2.3 -23.7 0 c-13 0 -33.4 -0.3 -45.3 -0.7 l-21.8 -0.6 0 -89.6 c0 -49.3 -0.4 -90.1 -0.8 -90.7 -1 -1.6 -49.1 -1.8 -50.9 -0.2 -1 0.8 -1.3 23.3 -1.3 114.8 0 62.5 0.3 114 0.7 114.3 0.3 0.4 32.5 0.7 71.4 0.7 69 0 70.9 0 71.9 -1.9z m733 -42.1 l0.5 -43.5 6.3 -11.1 c3.4 -6.1 6.2 -11.4 6.2 -11.7 0 -0.3 4.8 -9.2 10.8 -19.8 5.9 -10.7 11.3 -20.6 12 -22.2 0.6 -1.5 6.3 -11.9 12.5 -23 6.3 -11.1 12.8 -22.9 14.4 -26.2 1.7 -3.3 3.9 -7.6 5 -9.5 1.1 -1.9 3.9 -7 6.2 -11.2 l4.3 -7.8 -25 0 -25.1 0 -2 2.9 c-2 2.8 -26.2 49.1 -41 78.6 l-7.6 15 -3.8 0.3 -3.7 0.3 -4.1 -8.8 c-4.3 -9.2 -23.1 -48.4 -35.2 -73.5 l-7.1 -14.8 -28.3 0 c-15.6 0 -28.3 0.3 -28.3 0.6 0 0.3 2.4 4.7 5.4 9.7 5.8 9.9 10.9 19.1 13.7 24.7 0.9 1.9 7.3 13.3 14.1 25.2 15.2 26.7 32.9 58.3 34.6 61.7 0.6 1.5 2.5 4.9 4 7.6 1.5 2.8 4.2 7.7 6 10.9 l3.2 5.9 0 41.9 0 41.8 25.8 -0.2 25.7 -0.3 0.5 -43.5z m525.4 42.4 c0.8 -2 0.8 -42.8 0 -44.8 -0.5 -1.4 -4.7 -1.6 -35.3 -1.7 -19 -0.1 -42 -0.5 -51.1 -0.8 l-16.5 -0.6 0 -22.5 0 -22.5 41.9 -0.3 c28.9 -0.1 42.3 -0.6 43.3 -1.3 2 -1.7 1.9 -39.2 -0.2 -40.9 -1.1 -0.9 -12.4 -1.4 -43.5 -1.8 l-42 -0.5 0.2 -21.6 0.3 -21.6 49.2 -0.5 c27 -0.3 49.5 -0.9 50 -1.3 0.4 -0.5 0.9 -10.4 1.1 -22.2 0.3 -18.5 0.1 -21.5 -1.3 -22.9 -1.5 -1.4 -8.6 -1.6 -74.6 -1.6 -48.4 0 -73.7 0.3 -75 1 -1.9 1 -1.9 3.4 -1.9 115.5 l0 114.5 77.4 0 c69.6 0 77.4 -0.2 78 -1.6z"/>
  <path d="M805.7 976.3 c-2.1 -2.1 -0.1 -10.1 8.4 -32.6 5 -13.3 13.3 -35.7 18.4 -49.7 5.1 -14 13.6 -37 18.8 -51 5.2 -14 15.4 -41.7 22.7 -61.5 7.3 -19.8 17.7 -47.7 23 -62 l9.7 -26 3.3 -0.3 c1.8 -0.2 4.4 0.2 5.7 0.9 1.7 0.9 9.3 1.1 32.3 0.5 19.3 -0.4 30.6 -0.3 31.8 0.3 1.1 0.6 2.6 2.9 3.5 5.3 10.5 28.5 49.1 136.6 61 171.1 3.9 11.3 7.3 19.4 8.5 20.5 1.4 1.1 4.1 8.5 8.2 21.7 3.4 11 8.8 28.4 12.1 38.6 3.2 10.3 5.9 20.1 5.9 21.8 l0 3.1 -37.4 0 -37.4 0 -5.1 -16.2 c-2.9 -9 -6.2 -19.2 -7.4 -22.8 l-2.2 -6.5 -46.3 0 c-40 0 -46.5 0.2 -47.6 1.5 -0.7 0.8 -4.1 10.5 -7.6 21.5 -3.4 11 -6.6 20.6 -7.2 21.3 -0.8 0.9 -9.6 1.2 -37.8 1.2 -20.1 0 -37 -0.3 -37.3 -0.7z m164.1 -106.5 c-0.3 -0.7 -3.1 -9.8 -6.2 -20.3 -6.2 -20.3 -20.3 -66 -21.2 -68.5 -0.3 -0.8 -2.5 4.8 -4.9 12.5 -2.3 7.7 -8.4 27.5 -13.4 44 -5.1 16.5 -9.5 30.8 -9.7 31.8 -0.5 1.6 1.3 1.7 27.6 1.7 22.2 0 28.1 -0.3 27.8 -1.2z"/>
  <path d="M1554.2 917.8 c-0.9 -1.2 -1.2 -15.9 -1 -67.4 l0.3 -65.9 3.7 -0.9 c2.4 -0.6 12.4 -0.6 26.5 0.1 27.6 1.2 31.5 2.3 40.4 11.2 9.4 9.5 12.7 22.5 13.6 53.6 0.9 30.2 -2.4 47.3 -10.8 56.9 -5.4 6.1 -7.8 7.3 -21.7 10.2 -15.2 3.2 -48.9 4.7 -51 2.2z"/>
 </g>
 <g fill="#ffffff">
  <path d="M716.3 1213 c-2 -0.8 -2.3 -1.6 -2.3 -6.9 0 -4.8 0.9 -8.2 4.4 -16.8 2.4 -5.9 7.3 -18.4 10.9 -27.8 3.6 -9.3 10 -26 14.2 -37 8.8 -22.9 25.5 -66.6 44.2 -116.1 l12.9 -34.1 -13.5 -0.7 c-7.4 -0.3 -17.8 -0.6 -23.3 -0.6 -8 0 -9.8 -0.3 -9.8 -1.5 0 -1.3 -4.3 -1.5 -33 -1.5 l-33 0 0 -117.4 c0 -92.7 0.3 -117.5 1.3 -118.2 0.6 -0.5 13.6 -0.7 28.7 -0.4 l27.5 0.5 0.5 90 c0.3 49.5 0.6 90.1 0.8 90.3 0.1 0.1 6.5 0.2 14.2 0.2 11.5 0 14.2 -0.3 14.6 -1.5 0.5 -1.2 2.6 -1.3 12.9 -0.8 7.2 0.3 18.1 0.1 26.4 -0.7 7.8 -0.7 14.5 -1 14.8 -0.6 0.3 0.3 -0.4 3.2 -1.7 6.3 -10.3 26.6 -20 53.8 -19.6 54.9 0.7 2 67.8 2.1 69.4 0.2 0.6 -0.7 3.8 -10.3 7.2 -21.3 3.5 -11 7 -20.8 7.8 -21.7 1.7 -2 8 -2.3 26.5 -1.1 9.6 0.5 10.7 0.8 10.7 2.5 0 1.1 -3.8 12.8 -8.5 26.1 -29.6 84.1 -47.1 133.9 -61 173.7 -25.4 72.6 -28.6 81.4 -29.7 82.2 -1.8 1.1 -111.8 0.9 -114.5 -0.2z"/>
  <path d="M1053.5 1211.7 c-0.8 -1.3 -5.8 -14.7 -11 -29.8 -9.9 -28.4 -19 -54.2 -39.4 -112.4 -39.8 -113 -48.1 -137.1 -48.1 -139.5 0 -2 0.4 -2 18.8 -1.8 l18.7 0.3 2.2 6.5 c1.2 3.6 4.5 13.8 7.4 22.8 l5.1 16.2 34.5 0 c29.4 0 34.4 -0.2 34 -1.4 -0.9 -2.2 -10.9 -33.9 -17.7 -56.1 -3.6 -11.6 -6.9 -20.7 -7.9 -21.5 -1.7 -1.5 -1.8 -5.4 -1.3 -74 0.4 -60.6 0.7 -72 1.8 -69.5 1.2 2.7 1.3 2.2 1.4 -6.5 0 -6.1 0.4 -10 1.2 -10.8 1.9 -1.9 155.1 -1.7 156.7 0.2 0.8 0.9 1.1 8.8 0.9 26.7 l-0.3 25.4 -49.9 0.3 -49.9 0.2 0.7 23.2 c0.4 12.7 0.9 23.5 1.2 23.9 0.3 0.5 19.1 0.9 41.9 0.9 22.8 0 41.6 0.4 41.9 0.9 0.3 0.4 0.8 11.1 1.2 23.7 0.6 19.6 0.5 23.1 -0.8 24.1 -1.1 1 -11.9 1.3 -43.4 1.5 l-41.9 0.3 0.2 12.5 c0.1 6.9 0.7 14.1 1.3 16.1 0.9 2.7 1 10.5 0.4 31 l-0.9 27.4 -13.5 0.3 c-7.4 0.1 -14 0.4 -14.7 0.7 -1.4 0.5 -0.1 4.2 13 38 8.3 21.2 15.9 41.1 40.2 104.5 6.2 16.2 12.7 33.1 14.5 37.5 11.6 29 18 47.7 18 53 0 4.3 -0.4 5.6 -1.9 6.5 -1.3 0.6 -21.1 1 -57.5 1 l-55.6 0 -1.5 -2.3z"/>
  <path d="M1510.5 970 l-12 -0.5 -0.3 -117.4 c-0.2 -93.3 0 -117.6 1 -118.3 1.8 -1.1 85.1 -1 102.3 0.2 7.7 0.5 17.6 1.6 22 2.5 11.3 2.3 26.4 7.6 33.1 11.6 19.5 11.7 32.4 35.5 36.5 67.8 0.8 5.4 1.3 20.9 1.3 35.6 0.1 23.8 -0.4 30.8 -3.1 43 -0.2 1.1 -0.6 2.9 -0.8 4 -2 9.2 -9.8 25.3 -16.7 34.2 -5.2 6.9 -16 17.3 -20.6 20 -12 7.1 -23.5 11.5 -36.4 13.7 -15.4 2.7 -78.4 4.8 -106.3 3.6z m91.7 -57.4 c6.4 -1.4 13 -3.2 14.6 -4 4.5 -2.3 10.9 -10.2 13.1 -16.1 7 -18.7 6.4 -63.3 -1.1 -83.3 -2.9 -7.8 -11.2 -16.1 -19.3 -19.2 -5.1 -1.9 -9 -2.4 -27 -3.2 -14.9 -0.7 -21.8 -0.7 -23.7 0.1 l-2.8 1.1 0 62.8 c0 48.9 0.3 63.1 1.3 64.1 2 2.2 30.5 0.7 44.9 -2.3z"/>
  <path d="M165.3 969.3 c-1 -0.3 -1.3 -6.8 -1.3 -27.3 l0 -26.8 17.2 -21.9 c16.7 -21.3 24.9 -31.7 49.9 -63.3 23.9 -30.3 32.9 -41.9 32.9 -42.4 0 -0.3 -19.9 -0.7 -44.2 -0.8 l-44.3 -0.3 -0.8 -24.8 c-0.5 -13.6 -0.6 -25.4 -0.3 -26.2 0.5 -1.3 11.3 -1.5 78.5 -1.5 l78.1 0 0.5 2.3 c0.3 1.2 0.5 13 0.3 26.2 l-0.3 24 -4.5 5.6 c-6 7.4 -8.2 10.3 -10 13 -1.3 1.8 -12.9 16.5 -17.4 21.9 -2.4 3 -9.1 11.6 -11.1 14.4 -1.1 1.5 -6.9 9 -13 16.5 -6 7.6 -11.7 14.8 -12.5 16.1 -0.8 1.2 -6.6 8.5 -12.8 16.3 -6.1 7.8 -11.5 14.7 -12 15.2 -0.4 0.6 -2 2.7 -3.6 4.8 -1.5 2.1 -2.5 4.1 -2.2 4.4 0.3 0.3 24.3 0.8 53.3 1.2 l52.8 0.6 0 26.5 0 26.5 -86 0.2 c-47.3 0.1 -86.6 -0.1 -87.2 -0.4z"/>
  <path d="M382.8 853.4 c-0.2 -64.1 0 -117.4 0.4 -118.5 0.7 -1.8 1.9 -1.9 28.7 -1.9 21.4 0 28 0.3 28.3 1.3 0.2 0.6 0.6 54 0.7 118.5 l0.3 117.2 -29.1 0 -29.1 0 -0.2 -116.6z"/>
  <path d="M496.7 969.3 c-0.4 -0.3 -0.7 -53.2 -0.7 -117.3 0 -96.2 0.2 -117 1.3 -117.9 0.9 -0.7 10.2 -1.1 28.9 -1.1 24.1 0 27.7 0.2 28.2 1.6 0.3 0.9 0.6 41.7 0.6 90.8 l0 89.3 21.8 0.6 c11.9 0.4 32.3 0.7 45.3 0.7 l23.7 0 0.6 2.3 c1 3.9 0.7 47.7 -0.4 49.8 -1 1.9 -2.9 1.9 -74.9 1.9 -40.6 0 -74.1 -0.3 -74.4 -0.7z"/>
  <path d="M1321 928.2 l0 -41.9 -3.2 -5.9 c-1.8 -3.2 -4.5 -8.1 -6 -10.9 -1.5 -2.7 -3.4 -6.1 -4 -7.6 -1.7 -3.4 -19.4 -35 -34.6 -61.7 -6.8 -11.9 -13.2 -23.3 -14.1 -25.2 -2.8 -5.5 -7.5 -14.1 -15.1 -27.1 -3.8 -6.6 -7 -12.4 -7 -12.9 0 -0.6 12.7 -1 32.8 -1 l32.8 0 7.1 14.7 c12.1 25.2 30.9 64.4 35.2 73.6 2.6 5.6 4.5 8.6 5.2 8.1 0.6 -0.3 4.3 -7.2 8.3 -15.3 12.7 -25.7 38.9 -75.9 41.2 -78.8 l2.2 -2.8 28.3 0.3 c15.6 0.2 28.7 0.7 29.1 1 0.4 0.4 -1.4 4.3 -3.9 8.7 -6.9 12.2 -12.5 22.6 -14.6 27 -1.1 2.2 -7.1 13.1 -13.3 24.2 -6.3 11.1 -12 21.5 -12.6 23 -0.7 1.6 -6.1 11.5 -12 22.2 -6 10.6 -10.8 19.5 -10.8 19.8 0 0.3 -2.8 5.6 -6.2 11.7 l-6.3 11.1 -0.5 43.5 -0.5 43.5 -28.7 0.3 -28.8 0.2 0 -41.8z"/>
  <path d="M1743 852.5 c0 -115.1 0 -117.5 1.9 -118.5 1.3 -0.7 27.5 -1 78 -1 68.7 0 76.1 0.2 77.6 1.6 1.4 1.4 1.6 4.6 1.3 25.9 -0.2 13.4 -0.7 24.7 -1.1 25.2 -0.5 0.4 -23 1 -50 1.3 l-49.2 0.5 -0.3 18.8 -0.2 18.7 29.2 0 c34.2 0 54.8 0.8 56.6 2.2 1.8 1.5 1.7 45.1 -0.1 46.7 -1 0.7 -14.4 1.2 -43.3 1.3 l-41.9 0.3 -0.3 18.9 c-0.1 10.4 0.2 19.4 0.6 19.8 0.5 0.5 23.6 1.2 51.3 1.5 35.8 0.4 50.6 0.9 51.1 1.7 0.9 1.3 1.1 48.8 0.2 51 -0.6 1.4 -8.6 1.6 -81 1.6 l-80.4 0 0 -117.5z"/>
  <path d="M910.4 872.6 c-0.6 -1.5 2 -10.4 17.9 -62.1 5.3 -17 10.3 -33.6 11.2 -36.8 1 -3.3 2.1 -5.5 2.5 -5 0.7 0.7 6.1 17.7 27 85.5 3.1 10.3 5.5 19 5.2 19.3 -0.3 0.3 -14.6 0.5 -31.9 0.5 -26.1 0 -31.5 -0.2 -31.9 -1.4z"/>
  <path d="M908 695.1 c0 -3.2 1.8 -8.2 6.6 -18.9 3.7 -8.1 9.3 -20.8 12.5 -28.2 7.1 -16.7 8.2 -18 14.6 -18 4.1 0 5.4 0.5 7.5 2.8 3.4 3.6 3.6 4.1 10.7 22.8 3.4 8.9 8.3 21.2 11.1 27.4 2.7 6.2 5 11.8 5 12.5 0 2.4 -61.4 3.7 -63.9 1.3 -1 -1.1 -1.5 -0.9 -2.7 0.6 -1.3 1.8 -1.4 1.7 -1.4 -2.3z"/>
 </g>
 <g fill="#fe1718">
  <path d="M680.5 1289 c-35.2 -1.2 -42.3 -1.9 -44.5 -4.3 -1.1 -1.1 -1.7 -2.4 -1.4 -2.8 0.3 -0.5 0.7 -1.7 0.9 -2.6 0.2 -1 5.1 -13.9 11 -28.8 5.9 -14.8 10.9 -27.6 11 -28.5 0.2 -0.8 0.4 -1.7 0.5 -2 0.1 -0.3 0.2 -0.8 0.1 -1.2 0 -0.5 0.3 -0.8 0.9 -0.8 0.6 0 0.9 -0.3 0.9 -0.7 -0.1 -0.5 0 -1 0.1 -1.3 0.1 -0.3 0.3 -1.2 0.5 -2 0.2 -0.8 5.1 -13.6 11 -28.5 5.9 -14.8 10.8 -27.4 10.9 -28 0.1 -0.5 0.5 -1.6 0.9 -2.2 0.5 -0.7 0.6 -1.3 0.2 -1.3 -0.3 0 0 -1 0.7 -2.2 0.7 -1.3 1.3 -2.5 1.4 -2.8 0.1 -0.6 -0.7 1.4 11.6 -30 5.5 -14 10.2 -26.2 10.3 -27 0.2 -0.8 0.4 -1.6 0.5 -1.7 0.2 -0.2 0.3 -0.6 0.5 -1 0.2 -1 1.4 -4.2 2.5 -6.8 3.8 -9.2 22.1 -56.4 22.5 -58 0.3 -1.3 0.1 -0.9 11.4 -29.9 l9.6 -24.9 26.5 0.7 c18.7 0.5 26.7 1.1 27.2 1.9 0.4 0.7 0 1.5 -1.2 1.9 -2.6 1 -2.6 0.9 -16.4 37.5 -16.8 44.3 -34.7 91.6 -44.1 115.8 -4.2 11 -10.6 27.7 -14.2 37 -3.6 9.4 -8.5 21.9 -10.9 27.8 -5.2 12.7 -5.6 16.3 -1.8 17.7 3.1 1.2 106.3 1.3 108.2 0.2 0.6 -0.5 5.3 -12.5 10.3 -26.8 5 -14.2 13.7 -39.2 19.4 -55.4 13.8 -39.4 27.1 -77.4 41.4 -118 6.5 -18.4 15.5 -44.1 20.1 -57.1 l8.3 -23.6 8.1 -0.7 c4.5 -0.3 11.3 -0.6 15.2 -0.6 l7 0 2.2 6.3 c3.1 9.2 31.4 89.9 45.4 129.7 20.9 59.5 30.4 86.6 40.3 114.9 5.2 15.1 10.2 28.5 11 29.8 l1.5 2.3 52.6 0 c34.3 0 53.2 -0.4 54.5 -1 1.1 -0.6 1.9 -2.1 1.9 -3.5 0 -2.2 -10.2 -30.5 -18 -50 -1.8 -4.4 -8.3 -21.3 -14.5 -37.5 -24.3 -63.4 -32 -83.4 -40.9 -106.5 -12.3 -31.7 -15.2 -40.2 -14.3 -41.2 0.5 -0.4 7.5 -1 15.5 -1.3 l14.7 -0.5 1 -29 c1 -28.4 1.1 -28.9 2.7 -25.5 1 1.9 7.4 17.9 14.3 35.5 7 17.6 13.1 32.8 13.6 33.7 0.5 1 0.9 2.3 0.9 3 0 0.7 5.1 14.3 11.4 30.3 13.6 34.7 12.8 32.7 13.2 34.2 0.1 0.6 5.1 13.7 11.2 29 13 32.9 12.5 31.6 12.6 32.5 0.1 0.3 0.4 1 0.9 1.4 0.4 0.4 0.7 1.4 0.7 2.2 0 0.8 5 14.1 11.1 29.6 6.1 15.4 11.5 29 11.9 30.1 1.5 3.7 2.3 6 2.5 7.1 0.2 0.5 5.2 13.6 11.3 29 12.5 31.8 12.4 31.6 12.8 32.9 0.1 0.6 2.2 6.4 4.7 13 2.5 6.6 5.3 14.6 6.2 17.8 1.5 5.3 1.5 6 0.1 8.2 -0.9 1.4 -2.9 2.8 -4.4 3.2 -1.5 0.4 -43 0.8 -92.2 0.8 l-89.5 0 -2.8 -2.2 c-1.6 -1.2 -2.8 -2.4 -2.8 -2.7 0 -0.3 -0.6 -2.1 -1.4 -4 -0.8 -2 -1.5 -4.2 -1.5 -5.1 0 -0.8 -4.8 -14.6 -10.6 -30.7 -5.9 -16.1 -10.8 -29.9 -10.9 -30.8 -0.2 -0.8 -0.4 -1.6 -0.5 -1.7 -0.2 -0.2 -0.3 -0.6 -0.4 -1 -0.1 -0.5 -0.5 -1.4 -0.9 -2.1 -0.5 -0.7 -1 -2.4 -1.3 -3.8 -0.2 -1.3 -5 -14.9 -10.5 -30.2 -5.5 -15.2 -12.5 -34.9 -15.4 -43.7 -2.9 -8.8 -9 -25.9 -13.5 -38 -4.4 -12.1 -8.3 -22.9 -8.5 -24 -0.2 -1.1 -0.4 -2.1 -0.6 -2.2 -0.1 -0.2 -0.2 -0.6 -0.4 -1 -0.1 -0.5 -0.4 -1.5 -0.7 -2.3 -7.3 -20.1 -22.1 -61.9 -22.3 -63 -0.2 -0.8 -0.4 -1.6 -0.5 -1.7 -0.2 -0.2 -0.4 -0.7 -0.5 -1.3 -0.1 -0.5 -0.4 -1.2 -0.5 -1.5 -0.1 -0.3 -0.4 -0.9 -0.5 -1.5 -0.1 -0.5 -0.4 -1.2 -0.5 -1.5 -0.1 -0.3 -0.3 -0.8 -0.5 -1.2 -0.1 -0.5 -0.4 -1.5 -0.7 -2.3 -0.3 -0.8 -3.4 -9.5 -6.8 -19.2 -3.5 -9.8 -6.6 -17.5 -7.1 -17.2 -0.5 0.3 -1.4 2.4 -2 4.7 -0.6 2.3 -6.1 18.1 -12.1 35.1 -6.1 17 -11.2 31.7 -11.3 32.5 -0.2 0.9 -0.4 1.7 -0.5 1.9 -0.2 0.1 -0.4 0.7 -0.5 1.2 -0.1 0.6 -0.4 1.2 -0.5 1.5 -0.1 0.3 -0.4 1 -0.5 1.5 -0.1 0.6 -0.4 1.2 -0.5 1.5 -0.1 0.3 -0.4 1 -0.5 1.5 -0.1 0.6 -0.3 1.1 -0.5 1.3 -0.1 0.1 -0.3 0.9 -0.5 1.7 -0.2 0.8 -5.1 14.8 -10.9 31 -5.9 16.2 -10.8 30.4 -11.1 31.5 -0.2 1.1 -0.4 2.1 -0.6 2.3 -0.1 0.1 -0.3 0.7 -0.4 1.2 -0.1 0.6 -0.4 1.2 -0.5 1.5 -0.1 0.3 -0.3 0.8 -0.5 1.3 -0.1 0.4 -0.4 1.4 -0.7 2.2 -4.6 12.3 -23 65.1 -23.3 66.9 -0.2 1.2 -0.9 2.9 -1.6 3.7 -0.6 0.8 -0.8 1.4 -0.4 1.4 0.4 0 0.3 0.6 -0.3 1.3 -0.6 0.6 -1.1 1.5 -1.1 2 -0.1 0.4 -0.1 0.8 -0.2 1 0 0.1 -0.2 0.9 -0.4 1.7 -0.1 0.8 -4.6 13.5 -9.9 28.2 -5.3 14.8 -9.6 27.4 -9.6 28.1 0 0.8 -0.3 1.7 -0.7 2.1 -0.5 0.4 -0.9 1.2 -0.9 1.7 -0.1 0.5 -0.3 1.1 -0.4 1.4 -0.1 0.3 -0.4 1 -0.5 1.5 -0.1 0.6 -0.4 1.2 -0.5 1.5 -0.1 0.3 -0.4 1 -0.5 1.5 -0.1 0.6 -0.3 1.1 -0.5 1.3 -0.1 0.1 -0.3 0.9 -0.5 1.7 -0.9 4.6 -10 28.7 -11.4 30.2 -1.4 1.4 -5.6 1.8 -29.1 2.7 -39.8 1.5 -92.1 2 -117.5 1.1z"/>
  <path d="M778.4 915.4 l-3.1 -0.5 4.5 -12.2 c2.5 -6.7 9.6 -25.3 15.9 -41.4 6.2 -16.1 11.3 -29.7 11.3 -30.4 0 -0.6 0.6 -2.5 1.4 -4.2 3.3 -7.3 25.6 -65.3 25.6 -66.5 0 -0.7 0.5 -2.3 1.2 -3.5 0.7 -1.2 1.3 -2.6 1.4 -3.2 0.1 -0.5 5 -13.1 10.8 -28 5.8 -14.8 10.6 -27.8 10.6 -28.7 0 -1 0.5 -1.8 1.2 -1.8 0.6 0 0.8 -0.3 0.5 -0.7 -0.4 -0.3 -0.2 -1.2 0.4 -2 0.6 -0.7 0.8 -1.3 0.5 -1.3 -0.4 0 -0.1 -1 0.6 -2.2 0.6 -1.3 1.3 -2.7 1.4 -3.3 0.1 -0.5 4.5 -12 9.7 -25.5 11.1 -28.5 10.9 -27.9 11.4 -30.5 0.2 -1 0.9 -2.3 1.6 -2.7 0.6 -0.4 0.8 -0.8 0.3 -0.8 -0.5 0 -0.2 -0.7 0.5 -1.7 0.8 -0.9 1.3 -1.9 1.1 -2.2 -0.4 -0.7 17.1 -45.5 20.5 -52.8 3.6 -7.3 7.5 -11.3 11.2 -11.3 2.1 0 3.5 0.7 4.5 2.3 1.9 2.8 14.6 31.7 14 31.7 -0.2 0 0.3 1.1 1.2 2.5 0.9 1.4 1.3 2.5 1 2.5 -0.4 0 0 1.2 0.8 2.8 0.8 1.5 1.7 3.5 2 4.5 0.3 0.9 0.9 1.7 1.3 1.7 0.8 0 12.7 -27.3 14.6 -33.6 0.6 -1.9 1.4 -3.4 1.9 -3.4 0.5 0 0.7 -0.4 0.4 -0.9 -1 -1.5 3.9 -7.6 6.3 -7.9 6.8 -1 11.5 3.6 16.3 16 2 5.1 3.9 10.2 4.4 11.3 0.4 1.1 0.8 2.2 0.8 2.5 0.1 0.3 0.7 1.4 1.3 2.5 0.6 1.1 1.1 2.3 1.2 2.8 0.1 0.4 0.1 0.8 0.2 1 0 0.1 0.2 0.9 0.4 1.8 0.1 0.9 1 3.2 1.8 5 1.9 4.1 19.2 48.2 19.2 48.9 0 0.3 0.4 1.1 0.8 1.8 0.5 0.6 0.5 1.2 0 1.2 -0.4 0 -0.2 0.4 0.4 0.8 0.7 0.4 1.4 1.7 1.6 2.7 0.5 2.7 0.5 2.8 12 31.9 5.6 14.3 10.2 26.2 10.2 26.5 0.1 0.3 0.6 1.6 1.3 2.8 0.6 1.2 1.3 3 1.5 4 0.2 1 0.7 2.7 1.2 3.8 0.4 1.1 2.9 7.8 5.6 14.8 l4.9 12.9 -0.1 52.6 c-0.2 64.9 -0.9 87.5 -2.7 86.3 -0.7 -0.4 -4.2 -9.3 -7.8 -19.7 -12 -34.7 -50.7 -143.1 -61.1 -171.3 -1.2 -3.2 -2.5 -4.7 -4.8 -5.7 -2.8 -1.1 -3.9 -2.9 -9.3 -15.6 -3.3 -7.9 -8.1 -19.8 -10.6 -26.6 -5.5 -14.6 -6.6 -17 -9.9 -20.1 -3.1 -2.8 -6.7 -2.3 -8.9 1.1 -0.8 1.3 -3.8 7.9 -6.8 14.8 -4.4 10.5 -9.1 21 -20.5 46.5 -1.4 3.1 -10 26.2 -32.5 87 -7.3 19.8 -19 51.5 -26 70.5 -7.1 19 -14.8 40 -17.2 46.7 -4.3 12 -4.3 12.1 -7.8 12.7 -4.8 0.7 -43.7 1.5 -47.6 1z"/>
 </g>
</svg>